<svg xmlns="http://www.w3.org/2000/svg" xmlns:xlink="http://www.w3.org/1999/xlink" xml:space="preserve" version="1.1" style="shape-rendering:geometricPrecision;text-rendering:geometricPrecision;image-rendering:optimizeQuality;" viewBox="0 0 50000 62500" x="0px" y="0px" fill-rule="evenodd" clip-rule="evenodd"><defs><style type="text/css">
   
    .fil0 {fill:black;fill-rule:nonzero}
   
  </style></defs><g><path class="fil0" d="M24800.04 36903.66l36.1 -13399.34c7.75,-2877.49 1183.89,-5491.41 3076.52,-7384.04 4089.49,-4089.49 10664.84,-4082.64 14755.25,3.74 2100.47,2098.38 3070.81,4689.33 3062.96,7626.44l-35.51 13330.82c-2.04,769.37 -100.82,553.12 558.13,902.46 254.02,134.67 509.43,283.84 768.01,451.03 1524.27,849.73 2907.41,2902.34 1090.01,4231.8 -2729.86,1996.91 -22988.31,2107.8 -25651.84,-45.04 -1235.42,-998.56 -708.21,-2771.24 296.16,-3745.56 386.66,-375.08 876.76,-711.02 1448.1,-1000.9 715.76,-363.19 593.83,-126.6 596.11,-971.41zm-19228.16 -11715.72l3104.25 0c337.35,-3.21 304.27,1111.44 0,1101.62l-3104.25 0 0 3044.83c12.67,396.88 -1178.51,410.1 -1192.3,0l0 -3044.83 -3025.23 0c-436.57,-16.63 -443.18,-1091.6 0,-1101.62l3025.23 0 0 -3106.37c20.4,-343.96 1191.74,-310.89 1192.3,0l0 3106.37zm8508.61 1251.82c-377.32,-875.33 -788.79,-1882.08 -1029.89,-2806.9 -205.39,-787.71 0.84,-744.79 -555.28,-1416.76 -896.6,-1083.51 -1530.3,-3730.26 -805.89,-5016.38 354.46,-629.26 394.24,-278.94 258.1,-988.12 -503.18,-2620.7 -150.86,-5315.1 1632.38,-7409.47 3155.89,-3706.5 9426.38,-3857.42 13228.89,-1134.32 1544.16,1105.81 2824.7,2733.17 3597.69,4965.42 204.55,593.91 -698.49,904.92 -903.03,311 -701.31,-2025.26 -1858.88,-3498.69 -3252.98,-4497.04 -3396.05,-2432.02 -9109.7,-2355.16 -11943.64,973.21 -1635.25,1920.55 -1879.92,4412.82 -1383.22,6796.32 146.79,704.39 249.28,500.71 -164.33,1090.81 -793.76,1132.37 -375.52,3270.93 474.2,4297.81 673.97,814.52 501.83,864.1 742.63,1787.71 211.86,812.73 577.74,1722.57 925.63,2535.18 517.56,1208.89 982.73,2113.94 2242.19,2870.17 1010.89,606.99 2116.14,780.36 2935.52,746.61 628.45,-24.63 665.87,930.88 37.47,955.5 -966.43,39.8 -2270.4,-164.92 -3463.85,-881.52 -1127.14,-676.8 -570.62,-712.16 -932.6,217.69 -330.29,848.39 -1193.86,1026.15 -2394.1,1272.92 -1622.02,333.49 -4028.77,977.92 -5244.5,1876.37 -1677.51,1239.73 -1965.62,3052.15 515.12,3552.02 4137.46,833.72 8505.21,1129.92 12721.46,1084.24 628.45,-4.92 635.88,950.58 7.5,955.49 -4297.1,46.58 -8699.27,-253.23 -12916.32,-1102.98 -3290.64,-663.08 -3282.06,-3494.52 -897.32,-5256.91 1493.32,-1103.62 3790.83,-1668.27 5622.96,-2044.98 1667.12,-342.76 2179.76,-826.1 1502.72,-2456.5 -188.45,-453.85 -435,-992.38 -557.51,-1276.59zm15862.04 8255.79c-1974.69,-2854.43 -2628.99,-6399.76 -2786.22,-9808.25 -27.09,-628.43 928.4,-669.62 955.5,-41.21 161.7,3505.37 823.53,6930.07 2963.88,9786.5 470.57,498.44 1013.8,836.11 1558.73,1054.94 707.28,284.03 1415.45,369.31 1973.76,346.32 628.45,-24.63 665.87,930.87 37.47,955.5 -671.58,27.66 -1521.54,-74.18 -2367.21,-413.78 -866.64,-348.01 -836.41,-669.02 -1378.49,-237.53 -869.12,767.15 -2935.16,1328.79 -4333.67,1708.95 -1145.85,311.47 -2262.02,659.63 -3143.47,1514.68 -550.38,533.91 -1118.48,1704.07 -363.61,2314.2 2366.67,1912.95 22230.17,1669.37 24486.51,18.82 1185.48,-867.18 -321.34,-2192.56 -1041.3,-2658.05 -839.22,-542.59 -1666.48,-883.17 -2544.15,-1163.79 -915.07,-292.6 -2250.47,-549.12 -3165.27,-919.85 -1652.91,-669.87 -1365.52,-1666.58 -653,-2919.28 2295.75,-4036.03 2809.08,-5715.45 2585.84,-10506.18 -27.1,-628.43 928.4,-669.62 955.5,-41.21 231.85,4976.08 -316.64,6812.68 -2709.51,11019.51 -367.32,645.79 -747.83,1182.73 180.88,1559.12 859.21,348.2 1990.07,554.23 2874.71,825.5 798.26,244.77 709.31,416.38 711.5,-402.57l34.52 -12956.44c7.04,-2662.7 -878.14,-5027.27 -2781.99,-6929.21 -3718.01,-3714.34 -9684.34,-3721.97 -13402.56,-3.74 -1722.07,1722.06 -2792.21,4096.16 -2799.24,6705.82l-35.52 13183.58c-1.9,704.71 -114.1,616.57 559.1,433.57 1108.94,-301.44 2664.49,-724.3 3541.37,-1217.97 870.74,-490.16 516.17,-586.02 85.94,-1207.95zm-2657.65 -19957.13c628.46,-44.35 695.84,911.15 67.45,955.49 -2097.23,155.55 -4533.05,-806.47 -5527.23,-2744.85 -253.58,-494.46 -118.27,-453.58 -722.48,-159.09 -242.33,118.12 -489.2,248.62 -744.31,383.52 -1569.48,829.85 -3422.14,1809.43 -6551.85,1397.8 -623.47,-81.31 -499.86,-1029.32 123.64,-948 2826.84,371.79 4535.13,-531.45 5982.31,-1296.63 1067.63,-564.5 2006.51,-1060.91 3176.74,-1019.61 628.38,22.16 594.73,977.66 -33.73,955.5 -594.98,-20.99 -530.13,40.16 -217.19,526.57 904.95,1406.61 2844.91,2068.1 4446.65,1949.3zm9175.74 6865.73c1268.27,1273.39 3118.33,1714.23 4869.67,1638.31 628.43,-27.1 669.62,928.4 41.21,955.5 -1999.5,86.69 -4067.04,-435.91 -5529.04,-1861.4 -770.7,-751.49 -305.53,-720.77 -1233.15,-131.07 -2002.38,1273.02 -4758.84,1622.47 -7021.18,1571.76 -628.4,-12.32 -609.71,-967.82 18.74,-955.5 2829.19,63.41 7307.15,-580.37 8382.96,-3701.01 204.55,-596.39 1111.34,-285.37 906.79,311.01 -137.62,399.2 -321.26,767.56 -545.14,1106.44 -393.57,595.8 -507.26,447.04 109.14,1065.96z"/></g><text x="0" y="50015" fill="#000000" font-size="5px" font-weight="bold" font-family="'Helvetica Neue', Helvetica, Arial-Unicode, Arial, Sans-serif">Created by Oleksandr Panasovskyi</text><text x="0" y="50020" fill="#000000" font-size="5px" font-weight="bold" font-family="'Helvetica Neue', Helvetica, Arial-Unicode, Arial, Sans-serif">from the Noun Project</text></svg>